<svg width="163" height="127" viewBox="0 0 163 127" fill="red" xmlns="http://www.w3.org/2000/svg">
<path d="M66.5527 48.9746L43.2617 50.3906L42.5293 49.707V43.3105H42.2363C41.1296 44.3197 40.0391 45.3125 38.9648 46.2891C37.9232 47.2331 36.6699 48.0957 35.2051 48.877C33.5449 49.7559 31.9661 50.4069 30.4688 50.8301C29.0039 51.2533 26.8555 51.4648 24.0234 51.4648C19.1081 51.4648 15.332 49.9837 12.6953 47.0215C10.0911 44.0592 8.78906 39.8763 8.78906 34.4727V12.5C8.78906 11.2305 8.54492 10.2051 8.05664 9.42383C7.56836 8.61003 6.91732 7.89388 6.10352 7.27539C5.45247 6.78711 4.60612 6.44531 3.56445 6.25C2.52279 6.02214 1.57878 5.87565 0.732422 5.81055V2.24609L24.4141 0.976562L24.9512 1.70898V34.1797C24.9512 37.5326 25.5859 40.0065 26.8555 41.6016C28.1576 43.1966 29.9316 43.9941 32.1777 43.9941C34.4889 43.9941 36.556 43.3919 38.3789 42.1875C40.2344 40.9831 41.5853 39.6973 42.4316 38.3301V12.0117C42.4316 10.9049 42.2201 9.91211 41.7969 9.0332C41.3737 8.1543 40.7552 7.43815 39.9414 6.88477C39.3555 6.49414 38.5091 6.23372 37.4023 6.10352C36.3281 5.97331 35.2214 5.87565 34.082 5.81055V2.24609L57.7637 0.976562L58.4961 1.70898V39.4043C58.4961 40.5436 58.724 41.5202 59.1797 42.334C59.6354 43.1152 60.3027 43.7826 61.1816 44.3359C61.8001 44.7266 62.5977 45.0033 63.5742 45.166C64.5833 45.2962 65.5762 45.3776 66.5527 45.4102V48.9746ZM134.961 50H105.566V46.4355C106.185 46.3704 106.934 46.2891 107.812 46.1914C108.691 46.0938 109.359 45.931 109.814 45.7031C110.498 45.3451 110.986 44.8242 111.279 44.1406C111.572 43.457 111.719 42.4479 111.719 41.1133V18.2617C111.719 14.9414 111.1 12.4512 109.863 10.791C108.659 9.09831 106.868 8.25195 104.492 8.25195C103.19 8.25195 101.969 8.44727 100.83 8.83789C99.7233 9.22852 98.6328 9.79818 97.5586 10.5469C96.6146 11.1979 95.8496 11.8652 95.2637 12.5488C94.7103 13.2324 94.2383 13.8346 93.8477 14.3555V40.5762C93.8477 41.7155 94.0104 42.6758 94.3359 43.457C94.6615 44.2057 95.1986 44.7754 95.9473 45.166C96.4681 45.459 97.1191 45.7194 97.9004 45.9473C98.6816 46.1751 99.4466 46.3379 100.195 46.4355V50H70.5078V46.4355C71.3216 46.3704 72.1354 46.2891 72.9492 46.1914C73.7956 46.0612 74.5117 45.8984 75.0977 45.7031C76.1393 45.3451 76.8555 44.7917 77.2461 44.043C77.6367 43.2943 77.832 42.3177 77.832 41.1133V12.6953C77.832 11.6862 77.5716 10.6934 77.0508 9.7168C76.5299 8.74023 75.8464 7.94271 75 7.32422C74.4141 6.93359 73.6654 6.60807 72.7539 6.34766C71.875 6.08724 70.8984 5.9082 69.8242 5.81055V2.24609L93.1152 0.976562L93.8477 1.70898V8.78906H94.043C94.9544 7.97526 96.0612 6.9987 97.3633 5.85938C98.6654 4.72005 99.8698 3.79232 100.977 3.07617C102.181 2.29492 103.76 1.6276 105.713 1.07422C107.666 0.520833 109.749 0.244141 111.963 0.244141C117.269 0.244141 121.24 1.75781 123.877 4.78516C126.546 7.77995 127.881 11.7676 127.881 16.748V40.6738C127.881 41.8783 128.06 42.8385 128.418 43.5547C128.776 44.2708 129.443 44.8405 130.42 45.2637C130.941 45.4915 131.576 45.7194 132.324 45.9473C133.105 46.1751 133.984 46.3379 134.961 46.4355V50ZM162.793 41.8945C162.793 44.4661 161.833 46.696 159.912 48.584C158.024 50.472 155.778 51.416 153.174 51.416C150.537 51.416 148.258 50.4883 146.338 48.6328C144.45 46.7448 143.506 44.4987 143.506 41.8945C143.506 39.2904 144.45 37.0443 146.338 35.1562C148.258 33.2357 150.537 32.2754 153.174 32.2754C155.778 32.2754 158.024 33.2357 159.912 35.1562C161.833 37.0768 162.793 39.3229 162.793 41.8945ZM99.8535 125H70.752V121.436C71.4681 121.338 72.2168 121.257 72.998 121.191C73.7793 121.126 74.4303 120.964 74.9512 120.703C75.6673 120.378 76.123 119.84 76.3184 119.092C76.5137 118.311 76.6113 117.318 76.6113 116.113V93.3105C76.6113 89.9577 76.0091 87.4512 74.8047 85.791C73.6328 84.0983 71.9401 83.252 69.7266 83.252C68.3268 83.252 67.0736 83.4798 65.9668 83.9355C64.8926 84.3587 63.8997 84.8958 62.9883 85.5469C62.0443 86.2305 61.3118 86.9141 60.791 87.5977C60.2702 88.2812 59.8307 88.8672 59.4727 89.3555V115.576C59.4727 116.748 59.6029 117.708 59.8633 118.457C60.1562 119.173 60.6771 119.743 61.4258 120.166C61.9466 120.459 62.5326 120.719 63.1836 120.947C63.8672 121.175 64.5833 121.338 65.332 121.436V125H37.4512V121.436C38.0697 121.37 38.8184 121.289 39.6973 121.191C40.5762 121.094 41.2272 120.931 41.6504 120.703C42.334 120.345 42.7734 119.824 42.9688 119.141C43.1966 118.457 43.3105 117.448 43.3105 116.113V93.3105C43.3105 89.9577 42.7083 87.4512 41.5039 85.791C40.332 84.0983 38.6393 83.252 36.4258 83.252C35.026 83.252 33.7728 83.4798 32.666 83.9355C31.5918 84.3587 30.599 84.8958 29.6875 85.5469C28.7435 86.2305 28.0111 86.9141 27.4902 87.5977C26.9694 88.2812 26.5299 88.8672 26.1719 89.3555V115.576C26.1719 116.715 26.3184 117.66 26.6113 118.408C26.9043 119.157 27.4251 119.743 28.1738 120.166C28.6947 120.459 29.2806 120.719 29.9316 120.947C30.6152 121.175 31.3314 121.338 32.0801 121.436V125H2.83203V121.436C3.67839 121.37 4.50846 121.289 5.32227 121.191C6.13607 121.094 6.83594 120.931 7.42188 120.703C8.46354 120.312 9.17969 119.759 9.57031 119.043C9.96094 118.294 10.1562 117.318 10.1562 116.113V87.6953C10.1562 86.6536 9.87956 85.6445 9.32617 84.668C8.77279 83.6589 8.10547 82.8776 7.32422 82.3242C6.73828 81.9336 5.98958 81.6081 5.07812 81.3477C4.19922 81.0872 3.22266 80.9082 2.14844 80.8105V77.2461L25.4395 75.9766L26.1719 76.709V83.5938H26.3672C27.2786 82.7799 28.3529 81.8197 29.5898 80.7129C30.8594 79.5736 32.0475 78.6621 33.1543 77.9785C34.3587 77.1973 35.9049 76.5462 37.793 76.0254C39.681 75.5046 41.748 75.2441 43.9941 75.2441C47.7051 75.2441 50.7975 76.0579 53.2715 77.6855C55.778 79.2806 57.5521 81.4128 58.5938 84.082H59.0332C59.9772 83.2031 61.1328 82.1777 62.5 81.0059C63.8672 79.8014 65.1204 78.8411 66.2598 78.125C67.5293 77.3112 69.1406 76.6276 71.0938 76.0742C73.0794 75.5208 75.1953 75.2441 77.4414 75.2441C82.3568 75.2441 86.1328 76.6927 88.7695 79.5898C91.4388 82.487 92.7734 86.6048 92.7734 91.9434V115.674C92.7734 116.878 92.9525 117.855 93.3105 118.604C93.6686 119.32 94.3197 119.873 95.2637 120.264C95.7845 120.492 96.4193 120.719 97.168 120.947C97.9492 121.175 98.8444 121.338 99.8535 121.436V125ZM127.002 126.66C123.844 126.66 120.752 126.188 117.725 125.244C114.73 124.333 112.402 123.356 110.742 122.314L109.277 125.635H105.469L104.834 107.422H108.398C108.887 108.887 109.701 110.547 110.84 112.402C111.979 114.225 113.281 115.869 114.746 117.334C116.276 118.799 118.018 120.036 119.971 121.045C121.956 122.054 124.072 122.559 126.318 122.559C129.281 122.559 131.478 121.989 132.91 120.85C134.375 119.678 135.107 117.887 135.107 115.479C135.107 114.176 134.782 113.102 134.131 112.256C133.48 111.41 132.585 110.677 131.445 110.059C130.176 109.408 128.776 108.854 127.246 108.398C125.749 107.943 123.893 107.389 121.68 106.738C119.466 106.087 117.562 105.436 115.967 104.785C114.404 104.102 112.777 103.044 111.084 101.611C109.619 100.342 108.447 98.8118 107.568 97.0215C106.689 95.2311 106.25 93.099 106.25 90.625C106.25 86.0352 108.171 82.3242 112.012 79.4922C115.885 76.6602 120.947 75.2441 127.197 75.2441C130.16 75.2441 132.878 75.5534 135.352 76.1719C137.858 76.7578 139.958 77.4089 141.65 78.125L142.676 75.2441H146.387L147.168 91.8945H143.701C142.562 88.5091 140.609 85.5957 137.842 83.1543C135.075 80.6803 132.096 79.4434 128.906 79.4434C126.4 79.4434 124.43 79.9642 122.998 81.0059C121.566 82.0475 120.85 83.4961 120.85 85.3516C120.85 87.8255 121.891 89.6159 123.975 90.7227C126.09 91.8294 129.036 92.8711 132.812 93.8477C138.639 95.3451 142.904 97.3958 145.605 100C148.307 102.572 149.658 105.859 149.658 109.863C149.658 115.202 147.559 119.336 143.359 122.266C139.193 125.195 133.74 126.66 127.002 126.66Z" fill="black"/>
</svg>
