<svg width="316" height="316" viewBox="0 0 316 316" fill="none" xmlns="http://www.w3.org/2000/svg">
<path d="M154.525 81.2171C153.191 60.3991 147.511 15.8301 135.761 0.755615C117.61 2.53712 100.331 7.29362 84.444 14.5176C46.154 31.9266 15.8755 63.6821 0.570038 102.851C0.570038 102.851 152.897 129.269 152.897 245.511L154.525 315.654H162.036L163.565 245.511C163.565 129.269 315.497 102.851 315.497 102.851C300.237 63.6856 270.06 31.9266 231.889 14.5211C216.055 7.29711 198.828 2.54062 180.74 0.755615C169.029 15.8336 163.401 60.1086 162.036 81.2171C160.895 98.7241 159.418 111.461 158.28 111.461C156.901 111.461 155.862 101.969 154.525 81.2171Z" fill="black"/>
</svg>
